# xmcd
#
# Track frame offsets:
#	150
#	35263
#	54090
#	100569
#	144804
#	174555
#
# Disc length: 2715 seconds
#
# Revision: 1
# Processed by: cddbd v1.5.2PL0 Copyright (c) Steve Scherf et al.
# Submitted via: audiograbber 1.83.01
#
DISCID=3a0a9906
DTITLE=The Devil And The Almighty Blues - The Devil And The Almighty Blues
DYEAR=2015
DGENRE=Blues
TTITLE0=The Ghosts Of Charlie Barracuda
TTITLE1=Distance
TTITLE2=Storm Coming Down
TTITLE3=Root To Root
TTITLE4=Never Darken My Door
TTITLE5=Tired Old Dog
EXTD=
EXTT0=
EXTT1=
EXTT2=
EXTT3=
EXTT4=
EXTT5=
PLAYORDER=
